<svg width="14" height="14" viewBox="0 0 14 14" fill="none" xmlns="http://www.w3.org/2000/svg">
<g clip-path="url(#clip0_42_2)">
<path d="M11.0625 5.78125C11.0625 6.94668 10.6842 8.02325 10.0469 8.89668L13.2613 12.1137C13.5787 12.4311 13.5787 12.9465 13.2613 13.2639C12.9439 13.5813 12.4285 13.5813 12.1111 13.2639L8.89668 10.0469C8.02324 10.6867 6.94668 11.0625 5.78125 11.0625C2.86387 11.0625 0.5 8.69864 0.5 5.78125C0.5 2.86387 2.86387 0.5 5.78125 0.5C8.69863 0.5 11.0625 2.86387 11.0625 5.78125ZM5.78125 9.4375C6.2614 9.4375 6.73684 9.34293 7.18044 9.15919C7.62403 8.97544 8.0271 8.70613 8.36661 8.36661C8.70612 8.0271 8.97544 7.62404 9.15919 7.18044C9.34293 6.73684 9.4375 6.2614 9.4375 5.78125C9.4375 5.30111 9.34293 4.82566 9.15919 4.38207C8.97544 3.93847 8.70612 3.53541 8.36661 3.19589C8.0271 2.85638 7.62403 2.58706 7.18044 2.40332C6.73684 2.21957 6.2614 2.125 5.78125 2.125C5.3011 2.125 4.82566 2.21957 4.38206 2.40332C3.93847 2.58706 3.53541 2.85638 3.19589 3.19589C2.85638 3.53541 2.58706 3.93847 2.40332 4.38207C2.21957 4.82566 2.125 5.30111 2.125 5.78125C2.125 6.2614 2.21957 6.73684 2.40332 7.18044C2.58706 7.62404 2.85638 8.0271 3.19589 8.36661C3.53541 8.70613 3.93847 8.97544 4.38206 9.15919C4.82566 9.34293 5.3011 9.4375 5.78125 9.4375Z" fill="#333333"/>
</g>
<defs>
<clipPath id="clip0_42_2">
<rect width="13" height="13" fill="white" transform="translate(0.5 0.5)"/>
</clipPath>
</defs>
</svg>
