<svg width="433" height="75" viewBox="0 0 433 75" fill="none" xmlns="http://www.w3.org/2000/svg">
<path fill-rule="evenodd" clip-rule="evenodd" d="M38.4895 0H0V75H433V29.6387C432.996 30.8603 432.509 32.0561 431.615 32.9402L416.421 47.9741L420.022 69.2197C420.314 70.9695 419.585 72.7339 418.141 73.7838C416.698 74.8337 414.787 74.9503 413.213 74.1191L394.504 64.1306L375.796 74.1191C374.221 74.9503 372.311 74.8191 370.867 73.7838C369.423 72.7485 368.694 70.9695 368.986 69.2197L372.573 47.9741L357.379 32.9402C356.125 31.7007 355.687 29.8489 356.227 28.172C356.766 26.4951 358.225 25.2702 359.974 25.0078L380.914 21.9164L390.29 2.62469C391.077 1.02075 392.696 0 394.49 0C396.283 0 397.916 1.02075 398.689 2.62469L408.065 21.9164L429.019 25.0078C430.769 25.2702 432.213 26.4951 432.767 28.172C432.922 28.6421 432.998 29.126 433 29.6063V0H394.49H305.49H216.49H127.49H38.4895ZM38.4895 0C36.696 0 35.0774 1.02075 34.29 2.62469L24.9139 21.9164L3.97447 25.0078C2.22466 25.2702 0.766479 26.4951 0.226959 28.172C-0.312561 29.8489 0.124878 31.7007 1.37892 32.9402L16.5731 47.9741L12.986 69.2197C12.6944 70.9695 13.4235 72.7485 14.8671 73.7838C16.3107 74.8191 18.2209 74.9503 19.7957 74.1191L38.5041 64.1306L57.2125 74.1191C58.7874 74.9503 60.6976 74.8337 62.1412 73.7838C63.5848 72.7339 64.3139 70.9695 64.0222 69.2197L60.4205 47.9741L75.6147 32.9402C76.8688 31.7007 77.3208 29.8489 76.7667 28.172C76.2126 26.4951 74.769 25.2702 73.0192 25.0078L52.0652 21.9164L42.6891 2.62469C41.9162 1.02075 40.2831 0 38.4895 0ZM127.49 0C125.696 0 124.077 1.02075 123.29 2.62469L113.914 21.9164L92.9745 25.0078C91.2247 25.2702 89.7665 26.4951 89.227 28.172C88.6874 29.8489 89.1249 31.7007 90.3789 32.9402L105.573 47.9741L101.986 69.2197C101.694 70.9695 102.423 72.7485 103.867 73.7838C105.311 74.8191 107.221 74.9503 108.796 74.1191L127.504 64.1306L146.213 74.1191C147.787 74.9503 149.698 74.8337 151.141 73.7838C152.585 72.7339 153.314 70.9695 153.022 69.2197L149.421 47.9741L164.615 32.9402C165.869 31.7007 166.321 29.8489 165.767 28.172C165.213 26.4951 163.769 25.2702 162.019 25.0078L141.065 21.9164L131.689 2.62469C130.916 1.02075 129.283 0 127.49 0ZM216.49 0C214.696 0 213.077 1.02075 212.29 2.62469L202.914 21.9164L181.974 25.0078C180.225 25.2702 178.766 26.4951 178.227 28.172C177.687 29.8489 178.125 31.7007 179.379 32.9402L194.573 47.9741L190.986 69.2197C190.694 70.9695 191.423 72.7485 192.867 73.7838C194.311 74.8191 196.221 74.9503 197.796 74.1191L216.504 64.1306L235.213 74.1191C236.787 74.9503 238.698 74.8337 240.141 73.7838C241.585 72.7339 242.314 70.9695 242.022 69.2197L238.421 47.9741L253.615 32.9402C254.869 31.7007 255.321 29.8489 254.767 28.172C254.213 26.4951 252.769 25.2702 251.019 25.0078L230.065 21.9164L220.689 2.62469C219.916 1.02075 218.283 0 216.49 0ZM305.49 0C303.696 0 302.077 1.02075 301.29 2.62469L291.914 21.9164L270.974 25.0078C269.225 25.2702 267.766 26.4951 267.227 28.172C266.687 29.8489 267.125 31.7007 268.379 32.9402L283.573 47.9741L279.986 69.2197C279.694 70.9695 280.423 72.7485 281.867 73.7838C283.311 74.8191 285.221 74.9503 286.796 74.1191L305.504 64.1306L324.213 74.1191C325.787 74.9503 327.698 74.8337 329.141 73.7838C330.585 72.7339 331.314 70.9695 331.022 69.2197L327.421 47.9741L342.615 32.9402C343.869 31.7007 344.321 29.8489 343.767 28.172C343.213 26.4951 341.769 25.2702 340.019 25.0078L319.065 21.9164L309.689 2.62469C308.916 1.02075 307.283 0 305.49 0Z" fill="white"/>
</svg>
