<svg width="14" height="16" viewBox="0 0 14 16" fill="none" xmlns="http://www.w3.org/2000/svg">
<g clip-path="url(#clip0_42_7)">
<path d="M9.32143 4.2857C9.32143 3.67002 9.07685 3.07955 8.6415 2.6442C8.20615 2.20885 7.61568 1.96427 7 1.96427C6.38432 1.96427 5.79385 2.20885 5.3585 2.6442C4.92315 3.07955 4.67857 3.67002 4.67857 4.2857C4.67857 4.90138 4.92315 5.49184 5.3585 5.92719C5.79385 6.36255 6.38432 6.60713 7 6.60713C7.61568 6.60713 8.20615 6.36255 8.6415 5.92719C9.07685 5.49184 9.32143 4.90138 9.32143 4.2857ZM3.28571 4.2857C3.28571 3.30061 3.67704 2.35586 4.3736 1.6593C5.07017 0.962737 6.01491 0.571411 7 0.571411C7.98509 0.571411 8.92983 0.962737 9.6264 1.6593C10.323 2.35586 10.7143 3.30061 10.7143 4.2857C10.7143 5.27079 10.323 6.21553 9.6264 6.91209C8.92983 7.60866 7.98509 7.99998 7 7.99998C6.01491 7.99998 5.07017 7.60866 4.3736 6.91209C3.67704 6.21553 3.28571 5.27079 3.28571 4.2857ZM1.93058 14.0357H12.0694C11.8112 12.1989 10.2326 10.7857 8.32612 10.7857H5.67388C3.76741 10.7857 2.18884 12.1989 1.93058 14.0357ZM0.5 14.5667C0.5 11.7085 2.81562 9.39284 5.67388 9.39284H8.32612C11.1844 9.39284 13.5 11.7085 13.5 14.5667C13.5 15.0426 13.1141 15.4286 12.6382 15.4286H1.36183C0.885938 15.4286 0.5 15.0426 0.5 14.5667Z" fill="#333333"/>
</g>
<defs>
<clipPath id="clip0_42_7">
<rect width="13" height="14.8571" fill="white" transform="translate(0.5 0.571411)"/>
</clipPath>
</defs>
</svg>
