<svg width="12" height="13" viewBox="0 0 12 13" fill="none" xmlns="http://www.w3.org/2000/svg">
<path d="M6.5 2.03125C6.5 1.58184 6.13691 1.21875 5.6875 1.21875C5.23809 1.21875 4.875 1.58184 4.875 2.03125V5.6875H1.21875C0.769336 5.6875 0.40625 6.05059 0.40625 6.5C0.40625 6.94941 0.769336 7.3125 1.21875 7.3125H4.875V10.9688C4.875 11.4182 5.23809 11.7812 5.6875 11.7812C6.13691 11.7812 6.5 11.4182 6.5 10.9688V7.3125H10.1562C10.6057 7.3125 10.9688 6.94941 10.9688 6.5C10.9688 6.05059 10.6057 5.6875 10.1562 5.6875H6.5V2.03125Z" fill="black"/>
</svg>
