<svg width="14" height="16" viewBox="0 0 14 16" fill="none" xmlns="http://www.w3.org/2000/svg">
<path fill-rule="evenodd" clip-rule="evenodd" d="M4.95455 3.31824V3.86369H9.04545V3.31824C9.04545 2.48981 8.37388 1.81824 7.54545 1.81824H6.45455C5.62612 1.81824 4.95455 2.48981 4.95455 3.31824ZM10.5455 3.86369H12H13.5V5.36369V12.6819C13.5 14.3387 12.1569 15.6819 10.5 15.6819H3.5C1.84315 15.6819 0.5 14.3387 0.5 12.6819V5.36369V3.86369H2H3.45455V3.31824C3.45455 1.66138 4.79769 0.318237 6.45455 0.318237H7.54546C9.20231 0.318237 10.5455 1.66138 10.5455 3.31824V3.86369ZM12 5.36369V12.6819C12 13.5103 11.3284 14.1819 10.5 14.1819H3.5C2.67157 14.1819 2 13.5103 2 12.6819V5.36369H12Z" fill="#333333"/>
</svg>
