<svg width="16" height="16" viewBox="0 0 16 16" fill="none" xmlns="http://www.w3.org/2000/svg">
<path d="M0.708951 2.31104C0.377005 1.9791 0.377005 1.44091 0.708951 1.10896C1.0409 0.777014 1.57909 0.777014 1.91103 1.10896L14.8511 14.049C15.183 14.381 15.183 14.9191 14.8511 15.2511C14.5191 15.583 13.9809 15.583 13.649 15.2511L0.708951 2.31104Z" fill="#333333"/>
<path d="M13.649 1.10896C13.9809 0.777014 14.5191 0.777014 14.8511 1.10896C15.183 1.44091 15.183 1.9791 14.8511 2.31104L1.91103 15.2511C1.57909 15.583 1.0409 15.583 0.708951 15.2511C0.377005 14.9191 0.377005 14.381 0.708951 14.049L13.649 1.10896Z" fill="#333333"/>
</svg>
